<svg xmlns="http://www.w3.org/2000/svg" xmlns:xlink="http://www.w3.org/1999/xlink" viewBox="0 0 352.78 157.62"><defs><style>.a{fill:#fff;}.b{isolation:isolate;}.c{fill:#13659f;}.d{clip-path:url(#a);}.e,.f,.g,.h,.j,.k,.m,.n,.o,.p,.r,.s{mix-blend-mode:multiply;}.e{fill:url(#b);}.f{fill:url(#c);}.g{fill:url(#d);}.h{fill:url(#e);}.i{fill:url(#f);}.j{fill:url(#g);}.k{fill:url(#h);}.l{clip-path:url(#i);}.m{fill:url(#j);}.n{fill:url(#k);}.o{fill:url(#l);}.p{fill:url(#m);}.q{fill:url(#n);}.r{fill:url(#o);}.s{fill:url(#p);}</style><clipPath id="a" transform="translate(-38.1 -45.3)"><path class="a" d="M293.07,113.06H273.22V93.39a12,12,0,1,0-24,0v19.66H229.77a12,12,0,1,0,0,24h19.47V156.7a12,12,0,0,0,3.61,8.48,11.92,11.92,0,0,0,20.37-8.48V137h19.85a12,12,0,0,0,0-24Z"/></clipPath><linearGradient id="b" x1="209.33" y1="74.07" x2="289.88" y2="74.07" gradientUnits="userSpaceOnUse"><stop offset="0.29" stop-color="#f8eb31"/><stop offset="0.31" stop-color="#ebe537"/><stop offset="0.43" stop-color="#a5c257"/><stop offset="0.54" stop-color="#6aa672"/><stop offset="0.64" stop-color="#3c8f87"/><stop offset="0.73" stop-color="#1b7f96"/><stop offset="0.8" stop-color="#07769f"/><stop offset="0.85" stop-color="#0072a2"/><stop offset="1" stop-color="#0b4780"/></linearGradient><linearGradient id="c" x1="194.46" y1="115.79" x2="275.02" y2="115.79" gradientUnits="userSpaceOnUse"><stop offset="0.29" stop-color="#6de0e4"/><stop offset="0.31" stop-color="#68dbe1"/><stop offset="0.48" stop-color="#3baec6"/><stop offset="0.64" stop-color="#1b8db2"/><stop offset="0.76" stop-color="#0779a6"/><stop offset="0.85" stop-color="#0072a2"/><stop offset="1" stop-color="#0b4780"/></linearGradient><linearGradient id="d" x1="190.63" y1="40.02" x2="271.18" y2="40.02" gradientUnits="userSpaceOnUse"><stop offset="0.29" stop-color="#00aced"/><stop offset="0.37" stop-color="#00a0de"/><stop offset="0.57" stop-color="#0087bd"/><stop offset="0.74" stop-color="#0078a9"/><stop offset="0.85" stop-color="#0072a2"/><stop offset="1" stop-color="#0b4780"/></linearGradient><linearGradient id="e" x1="675.89" y1="-558.08" x2="756.44" y2="-558.08" gradientTransform="translate(-310.94 -564.36) rotate(90)" xlink:href="#c"/><linearGradient id="f" x1="-279.08" y1="47.31" x2="-198.53" y2="47.31" gradientTransform="translate(456.98 49.53)" gradientUnits="userSpaceOnUse"><stop offset="0.28" stop-color="#7cc414"/><stop offset="0.38" stop-color="#5caf39"/><stop offset="0.5" stop-color="#349566"/><stop offset="0.62" stop-color="#188287"/><stop offset="0.71" stop-color="#06769b"/><stop offset="0.78" stop-color="#0072a2"/><stop offset="0.9" stop-color="#065c91"/><stop offset="1" stop-color="#0b4780"/></linearGradient><linearGradient id="g" x1="355.36" y1="-1009.12" x2="435.91" y2="-1009.12" gradientTransform="translate(634.32 -858.09) rotate(-180)" gradientUnits="userSpaceOnUse"><stop offset="0.29" stop-color="#eb297b"/><stop offset="0.41" stop-color="#a43f87"/><stop offset="0.53" stop-color="#6a5190"/><stop offset="0.63" stop-color="#3c5f98"/><stop offset="0.72" stop-color="#1b6a9d"/><stop offset="0.8" stop-color="#0770a1"/><stop offset="0.85" stop-color="#0072a2"/><stop offset="1" stop-color="#0b4780"/></linearGradient><linearGradient id="h" x1="220.36" y1="101.4" x2="300.91" y2="101.4" xlink:href="#c"/><clipPath id="i" transform="translate(-38.1 -45.3)"><path class="a" d="M230.55,111l14,14-13.9,13.9a12,12,0,0,0,17,17l13.9-13.9,13.77,13.77a12,12,0,1,0,17-17L278.5,125l13.9-13.9a12,12,0,0,0,3.44-8.54,11.92,11.92,0,0,0-20.4-8.41l-13.9,13.9-14-14a12,12,0,1,0-17,17Z"/></clipPath><linearGradient id="j" x1="1360.83" y1="-641.32" x2="1441.38" y2="-641.32" gradientTransform="translate(874.92 1513.58) rotate(-90)" xlink:href="#b"/><linearGradient id="k" x1="1345.97" y1="-599.6" x2="1426.52" y2="-599.6" gradientTransform="translate(873.21 1479.72) rotate(-90)" xlink:href="#c"/><linearGradient id="l" x1="1342.13" y1="-675.37" x2="1422.68" y2="-675.37" gradientTransform="translate(898.11 1532.18) rotate(-90)" xlink:href="#d"/><linearGradient id="m" x1="-40.14" y1="-1700.81" x2="40.41" y2="-1700.81" gradientTransform="translate(288.12 1811.7)" xlink:href="#c"/><linearGradient id="n" x1="1065.5" y1="151.64" x2="1146.05" y2="151.64" gradientTransform="translate(115.17 1283.36) rotate(-90)" xlink:href="#f"/><linearGradient id="o" x1="-971.5" y1="-1249.8" x2="-890.95" y2="-1249.8" gradientTransform="translate(-948.78 1051.69) rotate(90)" xlink:href="#g"/><linearGradient id="p" x1="1371.86" y1="-613.99" x2="1452.41" y2="-613.99" gradientTransform="translate(859.11 1497.48) rotate(-90)" xlink:href="#c"/></defs><title>groa logo</title><g class="b"><path class="c" d="M102.1,120.07A6.07,6.07,0,0,0,96,126.2v18.65a27.1,27.1,0,0,1-7.2,4.83,26.17,26.17,0,0,1-11.05,2.37,27.23,27.23,0,0,1-19.36-8.11,26.43,26.43,0,0,1-5.88-8.6A25.9,25.9,0,0,1,50.37,125a26.18,26.18,0,0,1,2.1-10.35,27.55,27.55,0,0,1,6-8.62A27.94,27.94,0,0,1,77.9,98,26,26,0,0,1,93.27,103a6.13,6.13,0,0,0,3.52,1.11,6.27,6.27,0,0,0,5.06-2.59,6.2,6.2,0,0,0,1-4.59,6,6,0,0,0-2.53-4A38.77,38.77,0,0,0,77.9,85.76,39.94,39.94,0,0,0,49.77,97.31,38.23,38.23,0,0,0,38.1,125a38.25,38.25,0,0,0,3.09,15.25,39,39,0,0,0,8.47,12.42,40.11,40.11,0,0,0,28,11.66,38.15,38.15,0,0,0,16.1-3.47,39.81,39.81,0,0,0,12.84-9.37,6.21,6.21,0,0,0,1.58-4.06V126.2A6.07,6.07,0,0,0,102.1,120.07Z" transform="translate(-38.1 -45.3)"/><path class="c" d="M196.19,113.27a31.51,31.51,0,0,0-2-11.3A22.77,22.77,0,0,0,189.08,94a23.93,23.93,0,0,0-11.16-6.14,24.3,24.3,0,0,0-5.85-.79H144.53a6.14,6.14,0,0,0-6.14,6.14v63.61a6.22,6.22,0,0,0,6.14,6.14,6.14,6.14,0,0,0,6.14-6.14V99.38h21.4a14.84,14.84,0,0,1,6.25,1.72,10.91,10.91,0,0,1,3.75,3.71,17.75,17.75,0,0,1,1.86,8.47c0,4.92-1.62,8-5.27,10.1A24.74,24.74,0,0,1,168,126c-.51,0-1,0-1.43,0a16.35,16.35,0,0,0-3.61.36,6,6,0,0,0-4.91,6.5,6.11,6.11,0,0,0,6,5.65c.68,0,1.36,0,2,0s1.2,0,1.68,0a12.09,12.09,0,0,1,4.82,1.34,14.9,14.9,0,0,1,5.91,5.17,34.23,34.23,0,0,1,5,13.07,6.22,6.22,0,0,0,6,5,4.09,4.09,0,0,0,.63-.06,1.84,1.84,0,0,1,.3,0l.27,0a5.92,5.92,0,0,0,3.9-2.63,6.29,6.29,0,0,0,.91-4.61c-1.45-7.47-3.91-13.6-7.32-18.23a30.69,30.69,0,0,0-3.13-3.59C192.38,129.51,196.19,122.42,196.19,113.27Z" transform="translate(-38.1 -45.3)"/><path class="c" d="M390.36,154.24,361.55,90.68A6.1,6.1,0,0,0,356,87.06a6.2,6.2,0,0,0-5.63,3.56L321,154.26c-1.49,3.43-1,6.38,1.42,7.9a5.64,5.64,0,0,0,3,.87,7,7,0,0,0,4.85-2.18,79,79,0,0,1,12.72-9.9,40.14,40.14,0,0,1,13.45-5.29,36.74,36.74,0,0,1,8-.87,38.66,38.66,0,0,1,8.55,1l6.13,13.68a6.4,6.4,0,0,0,5.68,3.51,6.19,6.19,0,0,0,2.52-.53A6.3,6.3,0,0,0,390.36,154.24Zm-22.88-20.8c-.91,0-1.81-.07-2.69-.07a48.07,48.07,0,0,0-10.4,1.1,60.43,60.43,0,0,0-13.09,4.44l14.56-31Z" transform="translate(-38.1 -45.3)"/><path class="a" d="M293.07,113.06H273.22V93.39a12,12,0,1,0-24,0v19.66H229.77a12,12,0,1,0,0,24h19.47V156.7a12,12,0,0,0,3.61,8.48,11.92,11.92,0,0,0,20.37-8.48V137h19.85a12,12,0,0,0,0-24Z" transform="translate(-38.1 -45.3)"/><g class="d"><circle class="e" cx="256.97" cy="74.07" r="32.69"/><circle class="f" cx="242.1" cy="115.79" r="32.69"/><circle class="g" cx="238.27" cy="40.02" r="32.69"/><circle class="h" cx="247.11" cy="159.17" r="32.69" transform="matrix(1, -0.04, 0.04, 1, -44.24, -35.33)"/><circle class="i" cx="225.53" cy="96.83" r="32.69" transform="translate(-49.03 117.29) rotate(-38.78)"/><circle class="j" cx="231.29" cy="151.02" r="32.69" transform="translate(-77.51 160.73) rotate(-44.63)"/><circle class="k" cx="268" cy="101.4" r="32.69"/></g><path class="a" d="M230.55,111l14,14-13.9,13.9a12,12,0,0,0,17,17l13.9-13.9,13.77,13.77a12,12,0,1,0,17-17L278.5,125l13.9-13.9a12,12,0,0,0,3.44-8.54,11.92,11.92,0,0,0-20.4-8.41l-13.9,13.9-14-14a12,12,0,1,0-17,17Z" transform="translate(-38.1 -45.3)"/><g class="l"><circle class="m" cx="233.6" cy="105.12" r="32.69" transform="translate(-44.01 150.67) rotate(-45)"/><circle class="n" cx="273.61" cy="86.13" r="32.69" transform="translate(-18.87 173.4) rotate(-45)"/><circle class="o" cx="222.75" cy="142.42" r="32.69" transform="translate(-73.57 153.92) rotate(-45)"/><circle class="p" cx="295.66" cy="110.89" r="32.69" transform="translate(-24.48 207.58) rotate(-47.28)"/><circle class="q" cx="266.83" cy="170.23" r="32.69" transform="translate(30.59 371.74) rotate(-83.78)"/><circle class="r" cx="301.08" cy="127.84" r="32.69" transform="translate(133.19 382.79) rotate(-89.63)"/><circle class="s" cx="245.13" cy="77.99" r="32.69" transform="translate(-21.45 150.88) rotate(-45)"/></g></g></svg>